<mxfile host="app.diagrams.net" agent="Mozilla/5.0 (Windows NT 10.0; Win64; x64) AppleWebKit/537.36 (KHTML, like Gecko) Chrome/131.0.0.0 Safari/537.36 Edg/131.0.0.0" version="24.8.9">
  <diagram name="Page-1" id="58cdce13-f638-feb5-8d6f-7d28b1aa9fa0">
    <mxGraphModel dx="549" dy="626" grid="1" gridSize="10" guides="1" tooltips="1" connect="1" arrows="1" fold="1" page="1" pageScale="1" pageWidth="1100" pageHeight="850" background="none" math="0" shadow="0">
      <root>
        <mxCell id="0" />
        <mxCell id="1" parent="0" />
        <mxCell id="382b91b5511bd0f7-1" value="" style="ellipse;html=1;shape=startState;fillColor=#000000;strokeColor=#ff0000;rounded=1;shadow=0;comic=0;labelBackgroundColor=none;fontFamily=Verdana;fontSize=12;fontColor=#000000;align=center;direction=south;" parent="1" vertex="1">
          <mxGeometry x="130" y="50" width="30" height="30" as="geometry" />
        </mxCell>
        <mxCell id="x6N4AVNdgD--9fKv7K6O-7" value="" style="edgeStyle=orthogonalEdgeStyle;rounded=0;orthogonalLoop=1;jettySize=auto;html=1;" edge="1" parent="1" source="382b91b5511bd0f7-6" target="x6N4AVNdgD--9fKv7K6O-6">
          <mxGeometry relative="1" as="geometry" />
        </mxCell>
        <mxCell id="382b91b5511bd0f7-6" value="loan Application Initiated" style="rounded=1;whiteSpace=wrap;html=1;arcSize=24;fillColor=#ffffc0;strokeColor=#ff0000;shadow=0;comic=0;labelBackgroundColor=none;fontFamily=Verdana;fontSize=12;fontColor=#000000;align=center;" parent="1" vertex="1">
          <mxGeometry x="240" y="35" width="120" height="60" as="geometry" />
        </mxCell>
        <mxCell id="2a3bc250acf0617d-9" style="edgeStyle=orthogonalEdgeStyle;html=1;labelBackgroundColor=none;endArrow=open;endSize=8;strokeColor=#ff0000;fontFamily=Verdana;fontSize=12;align=left;" parent="1" source="382b91b5511bd0f7-1" target="382b91b5511bd0f7-6" edge="1">
          <mxGeometry relative="1" as="geometry" />
        </mxCell>
        <mxCell id="x6N4AVNdgD--9fKv7K6O-9" value="" style="edgeStyle=orthogonalEdgeStyle;rounded=0;orthogonalLoop=1;jettySize=auto;html=1;" edge="1" parent="1" source="x6N4AVNdgD--9fKv7K6O-6" target="x6N4AVNdgD--9fKv7K6O-8">
          <mxGeometry relative="1" as="geometry" />
        </mxCell>
        <mxCell id="x6N4AVNdgD--9fKv7K6O-6" value="Loan Application Submitted" style="whiteSpace=wrap;html=1;fontFamily=Verdana;fillColor=#ffffc0;strokeColor=#ff0000;fontColor=#000000;rounded=1;arcSize=24;shadow=0;comic=0;labelBackgroundColor=none;" vertex="1" parent="1">
          <mxGeometry x="440" y="35" width="120" height="60" as="geometry" />
        </mxCell>
        <mxCell id="x6N4AVNdgD--9fKv7K6O-11" value="" style="edgeStyle=orthogonalEdgeStyle;rounded=0;orthogonalLoop=1;jettySize=auto;html=1;" edge="1" parent="1" source="x6N4AVNdgD--9fKv7K6O-8" target="x6N4AVNdgD--9fKv7K6O-10">
          <mxGeometry relative="1" as="geometry" />
        </mxCell>
        <mxCell id="x6N4AVNdgD--9fKv7K6O-12" value="" style="edgeStyle=orthogonalEdgeStyle;rounded=0;orthogonalLoop=1;jettySize=auto;html=1;" edge="1" parent="1" source="x6N4AVNdgD--9fKv7K6O-8" target="x6N4AVNdgD--9fKv7K6O-10">
          <mxGeometry relative="1" as="geometry" />
        </mxCell>
        <mxCell id="x6N4AVNdgD--9fKv7K6O-8" value="Application Processing" style="whiteSpace=wrap;html=1;fontFamily=Verdana;fillColor=#ffffc0;strokeColor=#ff0000;fontColor=#000000;rounded=1;arcSize=24;shadow=0;comic=0;labelBackgroundColor=none;" vertex="1" parent="1">
          <mxGeometry x="640" y="35" width="120" height="60" as="geometry" />
        </mxCell>
        <mxCell id="x6N4AVNdgD--9fKv7K6O-19" value="" style="edgeStyle=orthogonalEdgeStyle;rounded=0;orthogonalLoop=1;jettySize=auto;html=1;" edge="1" parent="1" source="x6N4AVNdgD--9fKv7K6O-10" target="x6N4AVNdgD--9fKv7K6O-18">
          <mxGeometry relative="1" as="geometry" />
        </mxCell>
        <mxCell id="x6N4AVNdgD--9fKv7K6O-10" value="Application Under Review" style="whiteSpace=wrap;html=1;fontFamily=Verdana;fillColor=#ffffc0;strokeColor=#ff0000;fontColor=#000000;rounded=1;arcSize=24;shadow=0;comic=0;labelBackgroundColor=none;" vertex="1" parent="1">
          <mxGeometry x="640" y="175" width="120" height="60" as="geometry" />
        </mxCell>
        <mxCell id="x6N4AVNdgD--9fKv7K6O-16" value="" style="ellipse;html=1;shape=endState;fillColor=#000000;strokeColor=#ff0000;rounded=1;shadow=0;comic=0;labelBackgroundColor=none;fontFamily=Verdana;fontSize=12;fontColor=#000000;align=center;" vertex="1" parent="1">
          <mxGeometry x="20" y="740" width="30" height="30" as="geometry" />
        </mxCell>
        <mxCell id="x6N4AVNdgD--9fKv7K6O-21" value="" style="edgeStyle=orthogonalEdgeStyle;rounded=0;orthogonalLoop=1;jettySize=auto;html=1;" edge="1" parent="1" source="x6N4AVNdgD--9fKv7K6O-18" target="x6N4AVNdgD--9fKv7K6O-20">
          <mxGeometry relative="1" as="geometry" />
        </mxCell>
        <mxCell id="x6N4AVNdgD--9fKv7K6O-23" value="" style="edgeStyle=orthogonalEdgeStyle;rounded=0;orthogonalLoop=1;jettySize=auto;html=1;" edge="1" parent="1" source="x6N4AVNdgD--9fKv7K6O-18" target="x6N4AVNdgD--9fKv7K6O-22">
          <mxGeometry relative="1" as="geometry" />
        </mxCell>
        <mxCell id="x6N4AVNdgD--9fKv7K6O-18" value="Desicion&amp;nbsp;&lt;div&gt;Made&lt;/div&gt;" style="rhombus;whiteSpace=wrap;html=1;fontFamily=Verdana;fillColor=#ffffc0;strokeColor=#ff0000;fontColor=#000000;rounded=1;arcSize=24;shadow=0;comic=0;labelBackgroundColor=none;" vertex="1" parent="1">
          <mxGeometry x="440" y="152.5" width="100" height="105" as="geometry" />
        </mxCell>
        <mxCell id="x6N4AVNdgD--9fKv7K6O-26" value="" style="edgeStyle=orthogonalEdgeStyle;rounded=0;orthogonalLoop=1;jettySize=auto;html=1;" edge="1" parent="1" source="x6N4AVNdgD--9fKv7K6O-20" target="x6N4AVNdgD--9fKv7K6O-25">
          <mxGeometry relative="1" as="geometry" />
        </mxCell>
        <mxCell id="x6N4AVNdgD--9fKv7K6O-20" value="Application Approved" style="whiteSpace=wrap;html=1;fontFamily=Verdana;fillColor=#ffffc0;strokeColor=#ff0000;fontColor=#000000;rounded=1;arcSize=24;shadow=0;comic=0;labelBackgroundColor=none;" vertex="1" parent="1">
          <mxGeometry x="430" y="360" width="120" height="60" as="geometry" />
        </mxCell>
        <mxCell id="x6N4AVNdgD--9fKv7K6O-24" style="edgeStyle=orthogonalEdgeStyle;rounded=0;orthogonalLoop=1;jettySize=auto;html=1;exitX=0;exitY=0.5;exitDx=0;exitDy=0;entryX=1;entryY=0.5;entryDx=0;entryDy=0;" edge="1" parent="1" source="x6N4AVNdgD--9fKv7K6O-22" target="x6N4AVNdgD--9fKv7K6O-16">
          <mxGeometry relative="1" as="geometry">
            <Array as="points">
              <mxPoint x="80" y="205" />
              <mxPoint x="80" y="755" />
            </Array>
          </mxGeometry>
        </mxCell>
        <mxCell id="x6N4AVNdgD--9fKv7K6O-22" value="Application Rejected" style="whiteSpace=wrap;html=1;fontFamily=Verdana;fillColor=#ffffc0;strokeColor=#ff0000;fontColor=#000000;rounded=1;arcSize=24;shadow=0;comic=0;labelBackgroundColor=none;" vertex="1" parent="1">
          <mxGeometry x="250" y="175" width="120" height="60" as="geometry" />
        </mxCell>
        <mxCell id="x6N4AVNdgD--9fKv7K6O-57" value="" style="edgeStyle=orthogonalEdgeStyle;rounded=0;orthogonalLoop=1;jettySize=auto;html=1;" edge="1" parent="1" source="x6N4AVNdgD--9fKv7K6O-25" target="x6N4AVNdgD--9fKv7K6O-56">
          <mxGeometry relative="1" as="geometry" />
        </mxCell>
        <mxCell id="x6N4AVNdgD--9fKv7K6O-25" value="Loan Agreement Preparation" style="whiteSpace=wrap;html=1;fontFamily=Verdana;fillColor=#ffffc0;strokeColor=#ff0000;fontColor=#000000;rounded=1;arcSize=24;shadow=0;comic=0;labelBackgroundColor=none;" vertex="1" parent="1">
          <mxGeometry x="630" y="360" width="120" height="60" as="geometry" />
        </mxCell>
        <mxCell id="x6N4AVNdgD--9fKv7K6O-30" value="" style="edgeStyle=orthogonalEdgeStyle;rounded=0;orthogonalLoop=1;jettySize=auto;html=1;" edge="1" parent="1" source="x6N4AVNdgD--9fKv7K6O-27" target="x6N4AVNdgD--9fKv7K6O-29">
          <mxGeometry relative="1" as="geometry" />
        </mxCell>
        <mxCell id="x6N4AVNdgD--9fKv7K6O-27" value="Loan Disbursed" style="whiteSpace=wrap;html=1;fontFamily=Verdana;fillColor=#ffffc0;strokeColor=#ff0000;fontColor=#000000;rounded=1;arcSize=24;shadow=0;comic=0;labelBackgroundColor=none;" vertex="1" parent="1">
          <mxGeometry x="940" y="360" width="120" height="60" as="geometry" />
        </mxCell>
        <mxCell id="x6N4AVNdgD--9fKv7K6O-36" value="" style="edgeStyle=orthogonalEdgeStyle;rounded=0;orthogonalLoop=1;jettySize=auto;html=1;" edge="1" parent="1" source="x6N4AVNdgD--9fKv7K6O-29" target="x6N4AVNdgD--9fKv7K6O-35">
          <mxGeometry relative="1" as="geometry" />
        </mxCell>
        <mxCell id="x6N4AVNdgD--9fKv7K6O-29" value="Repayment Scheduled" style="whiteSpace=wrap;html=1;fontFamily=Verdana;fillColor=#ffffc0;strokeColor=#ff0000;fontColor=#000000;rounded=1;arcSize=24;shadow=0;comic=0;labelBackgroundColor=none;" vertex="1" parent="1">
          <mxGeometry x="940" y="500" width="120" height="60" as="geometry" />
        </mxCell>
        <mxCell id="x6N4AVNdgD--9fKv7K6O-91" style="edgeStyle=orthogonalEdgeStyle;rounded=0;orthogonalLoop=1;jettySize=auto;html=1;exitX=0.5;exitY=0;exitDx=0;exitDy=0;" edge="1" parent="1" source="x6N4AVNdgD--9fKv7K6O-35" target="x6N4AVNdgD--9fKv7K6O-46">
          <mxGeometry relative="1" as="geometry" />
        </mxCell>
        <mxCell id="x6N4AVNdgD--9fKv7K6O-97" style="edgeStyle=orthogonalEdgeStyle;rounded=0;orthogonalLoop=1;jettySize=auto;html=1;exitX=0;exitY=1;exitDx=0;exitDy=0;entryX=0.5;entryY=0;entryDx=0;entryDy=0;" edge="1" parent="1" source="x6N4AVNdgD--9fKv7K6O-35" target="x6N4AVNdgD--9fKv7K6O-48">
          <mxGeometry relative="1" as="geometry" />
        </mxCell>
        <mxCell id="x6N4AVNdgD--9fKv7K6O-35" value="Repayment In Progress" style="rhombus;whiteSpace=wrap;html=1;fontFamily=Verdana;fillColor=#ffffc0;strokeColor=#ff0000;fontColor=#000000;rounded=1;arcSize=24;shadow=0;comic=0;labelBackgroundColor=none;" vertex="1" parent="1">
          <mxGeometry x="780" y="480" width="100" height="100" as="geometry" />
        </mxCell>
        <mxCell id="x6N4AVNdgD--9fKv7K6O-67" value="" style="edgeStyle=orthogonalEdgeStyle;rounded=0;orthogonalLoop=1;jettySize=auto;html=1;" edge="1" parent="1" source="x6N4AVNdgD--9fKv7K6O-37" target="x6N4AVNdgD--9fKv7K6O-66">
          <mxGeometry relative="1" as="geometry" />
        </mxCell>
        <mxCell id="x6N4AVNdgD--9fKv7K6O-37" value="Payment Missed" style="whiteSpace=wrap;html=1;fontFamily=Verdana;fillColor=#ffffc0;strokeColor=#ff0000;fontColor=#000000;rounded=1;arcSize=24;shadow=0;comic=0;labelBackgroundColor=none;" vertex="1" parent="1">
          <mxGeometry x="560" y="500" width="100" height="60" as="geometry" />
        </mxCell>
        <mxCell id="x6N4AVNdgD--9fKv7K6O-42" value="" style="edgeStyle=orthogonalEdgeStyle;rounded=0;orthogonalLoop=1;jettySize=auto;html=1;" edge="1" parent="1" source="x6N4AVNdgD--9fKv7K6O-39" target="x6N4AVNdgD--9fKv7K6O-41">
          <mxGeometry relative="1" as="geometry" />
        </mxCell>
        <mxCell id="x6N4AVNdgD--9fKv7K6O-39" value="Default Procedures Initiated" style="whiteSpace=wrap;html=1;fontFamily=Verdana;fillColor=#ffffc0;strokeColor=#ff0000;fontColor=#000000;rounded=1;arcSize=24;shadow=0;comic=0;labelBackgroundColor=none;" vertex="1" parent="1">
          <mxGeometry x="116" y="600" width="120" height="40" as="geometry" />
        </mxCell>
        <mxCell id="x6N4AVNdgD--9fKv7K6O-44" style="edgeStyle=orthogonalEdgeStyle;rounded=0;orthogonalLoop=1;jettySize=auto;html=1;exitX=0.5;exitY=1;exitDx=0;exitDy=0;entryX=1;entryY=0.5;entryDx=0;entryDy=0;" edge="1" parent="1" source="x6N4AVNdgD--9fKv7K6O-41" target="x6N4AVNdgD--9fKv7K6O-16">
          <mxGeometry relative="1" as="geometry" />
        </mxCell>
        <mxCell id="x6N4AVNdgD--9fKv7K6O-41" value="Loan Defaulted" style="whiteSpace=wrap;html=1;fontFamily=Verdana;fillColor=#ffffc0;strokeColor=#ff0000;fontColor=#000000;rounded=1;arcSize=24;shadow=0;comic=0;labelBackgroundColor=none;" vertex="1" parent="1">
          <mxGeometry x="121" y="680" width="110" height="40" as="geometry" />
        </mxCell>
        <mxCell id="x6N4AVNdgD--9fKv7K6O-54" value="" style="edgeStyle=orthogonalEdgeStyle;rounded=0;orthogonalLoop=1;jettySize=auto;html=1;" edge="1" parent="1" source="x6N4AVNdgD--9fKv7K6O-46" target="x6N4AVNdgD--9fKv7K6O-53">
          <mxGeometry relative="1" as="geometry" />
        </mxCell>
        <mxCell id="x6N4AVNdgD--9fKv7K6O-86" style="edgeStyle=orthogonalEdgeStyle;rounded=0;orthogonalLoop=1;jettySize=auto;html=1;exitX=0.75;exitY=0;exitDx=0;exitDy=0;" edge="1" parent="1" source="x6N4AVNdgD--9fKv7K6O-46" target="x6N4AVNdgD--9fKv7K6O-35">
          <mxGeometry relative="1" as="geometry" />
        </mxCell>
        <mxCell id="x6N4AVNdgD--9fKv7K6O-46" value="Make Payment" style="whiteSpace=wrap;html=1;fontFamily=Verdana;fillColor=#ffffc0;strokeColor=#ff0000;fontColor=#000000;rounded=1;arcSize=24;shadow=0;comic=0;labelBackgroundColor=none;" vertex="1" parent="1">
          <mxGeometry x="620" y="670" width="120" height="30" as="geometry" />
        </mxCell>
        <mxCell id="x6N4AVNdgD--9fKv7K6O-52" style="edgeStyle=orthogonalEdgeStyle;rounded=0;orthogonalLoop=1;jettySize=auto;html=1;exitX=0;exitY=0.5;exitDx=0;exitDy=0;entryX=1;entryY=0.5;entryDx=0;entryDy=0;" edge="1" parent="1" source="x6N4AVNdgD--9fKv7K6O-48" target="x6N4AVNdgD--9fKv7K6O-16">
          <mxGeometry relative="1" as="geometry" />
        </mxCell>
        <mxCell id="x6N4AVNdgD--9fKv7K6O-48" value="Loan fully paid&amp;nbsp;" style="whiteSpace=wrap;html=1;fontFamily=Verdana;fillColor=#ffffc0;strokeColor=#ff0000;fontColor=#000000;rounded=1;arcSize=24;shadow=0;comic=0;labelBackgroundColor=none;" vertex="1" parent="1">
          <mxGeometry x="741" y="750" width="120" height="35" as="geometry" />
        </mxCell>
        <mxCell id="x6N4AVNdgD--9fKv7K6O-55" style="edgeStyle=orthogonalEdgeStyle;rounded=0;orthogonalLoop=1;jettySize=auto;html=1;exitX=0.5;exitY=0;exitDx=0;exitDy=0;entryX=1;entryY=1;entryDx=0;entryDy=0;" edge="1" parent="1" source="x6N4AVNdgD--9fKv7K6O-53" target="x6N4AVNdgD--9fKv7K6O-35">
          <mxGeometry relative="1" as="geometry" />
        </mxCell>
        <mxCell id="x6N4AVNdgD--9fKv7K6O-53" value="Loan Active" style="whiteSpace=wrap;html=1;fontFamily=Verdana;fillColor=#ffffc0;strokeColor=#ff0000;fontColor=#000000;rounded=1;arcSize=24;shadow=0;comic=0;labelBackgroundColor=none;" vertex="1" parent="1">
          <mxGeometry x="910" y="670" width="120" height="30" as="geometry" />
        </mxCell>
        <mxCell id="x6N4AVNdgD--9fKv7K6O-56" value="Loan Agreement signed" style="whiteSpace=wrap;html=1;fontFamily=Verdana;fillColor=#ffffc0;strokeColor=#ff0000;fontColor=#000000;rounded=1;arcSize=24;shadow=0;comic=0;labelBackgroundColor=none;" vertex="1" parent="1">
          <mxGeometry x="790" y="360" width="120" height="60" as="geometry" />
        </mxCell>
        <mxCell id="x6N4AVNdgD--9fKv7K6O-60" style="edgeStyle=orthogonalEdgeStyle;rounded=0;orthogonalLoop=1;jettySize=auto;html=1;exitX=1;exitY=0.5;exitDx=0;exitDy=0;entryX=-0.021;entryY=0.487;entryDx=0;entryDy=0;entryPerimeter=0;" edge="1" parent="1" source="x6N4AVNdgD--9fKv7K6O-56" target="x6N4AVNdgD--9fKv7K6O-27">
          <mxGeometry relative="1" as="geometry" />
        </mxCell>
        <mxCell id="x6N4AVNdgD--9fKv7K6O-69" value="" style="edgeStyle=orthogonalEdgeStyle;rounded=0;orthogonalLoop=1;jettySize=auto;html=1;" edge="1" parent="1" source="x6N4AVNdgD--9fKv7K6O-66" target="x6N4AVNdgD--9fKv7K6O-68">
          <mxGeometry relative="1" as="geometry" />
        </mxCell>
        <mxCell id="x6N4AVNdgD--9fKv7K6O-74" style="edgeStyle=orthogonalEdgeStyle;rounded=0;orthogonalLoop=1;jettySize=auto;html=1;exitX=0;exitY=0.5;exitDx=0;exitDy=0;entryX=1;entryY=0.5;entryDx=0;entryDy=0;" edge="1" parent="1" source="x6N4AVNdgD--9fKv7K6O-66" target="x6N4AVNdgD--9fKv7K6O-72">
          <mxGeometry relative="1" as="geometry" />
        </mxCell>
        <mxCell id="x6N4AVNdgD--9fKv7K6O-66" value="payment overdue" style="rhombus;whiteSpace=wrap;html=1;fontFamily=Verdana;fillColor=#ffffc0;strokeColor=#ff0000;fontColor=#000000;rounded=1;arcSize=24;shadow=0;comic=0;labelBackgroundColor=none;" vertex="1" parent="1">
          <mxGeometry x="440" y="490" width="80" height="80" as="geometry" />
        </mxCell>
        <mxCell id="x6N4AVNdgD--9fKv7K6O-93" style="edgeStyle=orthogonalEdgeStyle;rounded=0;orthogonalLoop=1;jettySize=auto;html=1;exitX=0.75;exitY=0;exitDx=0;exitDy=0;entryX=0;entryY=0.5;entryDx=0;entryDy=0;" edge="1" parent="1" source="x6N4AVNdgD--9fKv7K6O-68" target="x6N4AVNdgD--9fKv7K6O-35">
          <mxGeometry relative="1" as="geometry">
            <Array as="points">
              <mxPoint x="510" y="615" />
              <mxPoint x="740" y="615" />
              <mxPoint x="740" y="555" />
              <mxPoint x="780" y="555" />
            </Array>
          </mxGeometry>
        </mxCell>
        <mxCell id="x6N4AVNdgD--9fKv7K6O-68" value="Payment Received" style="whiteSpace=wrap;html=1;fontFamily=Verdana;fillColor=#ffffc0;strokeColor=#ff0000;fontColor=#000000;rounded=1;arcSize=24;shadow=0;comic=0;labelBackgroundColor=none;" vertex="1" parent="1">
          <mxGeometry x="420" y="650" width="120" height="30" as="geometry" />
        </mxCell>
        <mxCell id="x6N4AVNdgD--9fKv7K6O-76" value="" style="edgeStyle=orthogonalEdgeStyle;rounded=0;orthogonalLoop=1;jettySize=auto;html=1;" edge="1" parent="1" source="x6N4AVNdgD--9fKv7K6O-72" target="x6N4AVNdgD--9fKv7K6O-75">
          <mxGeometry relative="1" as="geometry" />
        </mxCell>
        <mxCell id="x6N4AVNdgD--9fKv7K6O-72" value="No Payment Received" style="whiteSpace=wrap;html=1;fontFamily=Verdana;fillColor=#ffffc0;strokeColor=#ff0000;fontColor=#000000;rounded=1;arcSize=24;shadow=0;comic=0;labelBackgroundColor=none;" vertex="1" parent="1">
          <mxGeometry x="280" y="515" width="120" height="30" as="geometry" />
        </mxCell>
        <mxCell id="x6N4AVNdgD--9fKv7K6O-78" style="edgeStyle=orthogonalEdgeStyle;rounded=0;orthogonalLoop=1;jettySize=auto;html=1;exitX=0.5;exitY=1;exitDx=0;exitDy=0;entryX=0.5;entryY=0;entryDx=0;entryDy=0;" edge="1" parent="1" source="x6N4AVNdgD--9fKv7K6O-75" target="x6N4AVNdgD--9fKv7K6O-39">
          <mxGeometry relative="1" as="geometry" />
        </mxCell>
        <mxCell id="x6N4AVNdgD--9fKv7K6O-75" value="Loan Delinquent" style="whiteSpace=wrap;html=1;fontFamily=Verdana;fillColor=#ffffc0;strokeColor=#ff0000;fontColor=#000000;rounded=1;arcSize=24;shadow=0;comic=0;labelBackgroundColor=none;" vertex="1" parent="1">
          <mxGeometry x="120" y="515" width="120" height="30" as="geometry" />
        </mxCell>
        <mxCell id="x6N4AVNdgD--9fKv7K6O-90" style="edgeStyle=orthogonalEdgeStyle;rounded=0;orthogonalLoop=1;jettySize=auto;html=1;exitX=0;exitY=0;exitDx=0;exitDy=0;entryX=0.897;entryY=-0.016;entryDx=0;entryDy=0;entryPerimeter=0;" edge="1" parent="1" source="x6N4AVNdgD--9fKv7K6O-35" target="x6N4AVNdgD--9fKv7K6O-37">
          <mxGeometry relative="1" as="geometry" />
        </mxCell>
      </root>
    </mxGraphModel>
  </diagram>
</mxfile>
